<svg width="300" height="300" viewBox="0 0 300 300" fill="none" xmlns="http://www.w3.org/2000/svg">
<mask id="mask0_1_2" style="mask-type:alpha" maskUnits="userSpaceOnUse" x="20" y="22" width="259" height="256">
<rect x="20" y="22" width="259" height="256" rx="43" fill="#D9D9D9"/>
</mask>
<g mask="url(#mask0_1_2)">
<rect x="24" y="26" width="251" height="248" rx="39" fill="#020415" stroke="#171560" stroke-width="8"/>
<path d="M122.4 171.5H92.52L87.12 194H54L87.12 91.4H129.42L161.1 194H127.8L122.4 171.5ZM107.28 113.54L96.66 151.52H118.08L108 113.54H107.28ZM169.691 91.4H243.311V113.72H202.091V134.06H236.111V153.68H202.091V194H169.691V91.4Z" fill="#C7C2FC"/>
<path d="M122.4 171.5L125.317 170.8L124.765 168.5H122.4V171.5ZM92.52 171.5V168.5H90.1548L89.6028 170.8L92.52 171.5ZM87.12 194V197H89.4852L90.0372 194.7L87.12 194ZM54 194L51.1451 193.078L49.8791 197H54V194ZM87.12 91.4V88.4H84.936L84.2651 90.4784L87.12 91.4ZM129.42 91.4L132.286 90.5149L131.633 88.4H129.42V91.4ZM161.1 194V197H165.166L163.966 193.115L161.1 194ZM127.8 194L124.883 194.7L125.435 197H127.8V194ZM107.28 113.54V110.54H105.004L104.391 112.732L107.28 113.54ZM96.66 151.52L93.7708 150.712L92.7061 154.52H96.66V151.52ZM118.08 151.52V154.52H121.98L120.98 150.75L118.08 151.52ZM108 113.54L110.9 112.77L110.308 110.54H108V113.54ZM122.4 168.5H92.52V174.5H122.4V168.5ZM89.6028 170.8L84.2028 193.3L90.0372 194.7L95.4372 172.2L89.6028 170.8ZM87.12 191H54V197H87.12V191ZM56.8549 194.922L89.9749 92.3216L84.2651 90.4784L51.1451 193.078L56.8549 194.922ZM87.12 94.4H129.42V88.4H87.12V94.4ZM126.554 92.2851L158.234 194.885L163.966 193.115L132.286 90.5149L126.554 92.2851ZM161.1 191H127.8V197H161.1V191ZM130.717 193.3L125.317 170.8L119.483 172.2L124.883 194.7L130.717 193.3ZM104.391 112.732L93.7708 150.712L99.5492 152.328L110.169 114.348L104.391 112.732ZM96.66 154.52H118.08V148.52H96.66V154.52ZM120.98 150.75L110.9 112.77L105.1 114.31L115.18 152.29L120.98 150.75ZM108 110.54H107.28V116.54H108V110.54ZM169.691 91.4V88.4H166.691V91.4H169.691ZM243.311 91.4H246.311V88.4H243.311V91.4ZM243.311 113.72V116.72H246.311V113.72H243.311ZM202.091 113.72V110.72H199.091V113.72H202.091ZM202.091 134.06H199.091V137.06H202.091V134.06ZM236.111 134.06H239.111V131.06H236.111V134.06ZM236.111 153.68V156.68H239.111V153.68H236.111ZM202.091 153.68V150.68H199.091V153.68H202.091ZM202.091 194V197H205.091V194H202.091ZM169.691 194H166.691V197H169.691V194ZM169.691 94.4H243.311V88.4H169.691V94.4ZM240.311 91.4V113.72H246.311V91.4H240.311ZM243.311 110.72H202.091V116.72H243.311V110.72ZM199.091 113.72V134.06H205.091V113.72H199.091ZM202.091 137.06H236.111V131.06H202.091V137.06ZM233.111 134.06V153.68H239.111V134.06H233.111ZM236.111 150.68H202.091V156.68H236.111V150.68ZM199.091 153.68V194H205.091V153.68H199.091ZM202.091 191H169.691V197H202.091V191ZM172.691 194V91.4H166.691V194H172.691Z" fill="#0A093A"/>
</g>
</svg>
